<svg width="70" height="70" viewBox="0 0 70 70" fill="none" xmlns="http://www.w3.org/2000/svg">
<path d="M52.1136 4.58497C51.4591 4.20708 50.6213 4.43157 50.2434 5.08604C49.8656 5.74188 50.09 6.57832 50.7445 6.9562C51.399 7.33546 52.2368 7.11097 52.6147 6.45513C52.9926 5.8008 52.7681 4.96422 52.1136 4.58497Z" fill="#F6C93C"/>
<path d="M35.0001 0C34.2443 0 33.631 0.613317 33.631 1.36909C33.631 2.12487 34.2443 2.73819 35.0001 2.73819C35.7559 2.73819 36.3692 2.12487 36.3692 1.36909C36.3692 0.613317 35.7559 0 35.0001 0Z" fill="#F6C93C"/>
<path d="M35.0001 36.4174C34.2443 36.4174 33.631 37.0307 33.631 37.7865C33.631 38.5423 34.2443 39.1556 35.0001 39.1556C35.7559 39.1556 36.3692 38.5423 36.3692 37.7865C36.3692 37.0309 35.7559 36.4174 35.0001 36.4174Z" fill="#F6C93C"/>
<path d="M19.7568 5.08618C19.3789 4.43171 18.5411 4.20722 17.8867 4.5851C17.2322 4.96436 17.0077 5.8008 17.3856 6.45527C17.7635 7.11111 18.6013 7.3356 19.2558 6.95634C19.9101 6.57845 20.1347 5.74188 19.7568 5.08618Z" fill="#F6C93C"/>
<path d="M35.0001 5.47638C34.244 5.47638 33.631 6.08929 33.631 6.84547V12.3218C33.631 13.078 34.244 13.6909 35.0001 13.6909C35.7561 13.6909 36.3692 13.078 36.3692 12.3218V6.84534C36.3692 6.08929 35.7561 5.47638 35.0001 5.47638Z" fill="#F6C93C"/>
<path d="M25.2332 14.5725L22.4952 9.82866C22.117 9.17378 21.2799 8.94888 20.625 9.32731C19.9701 9.70534 19.7456 10.5425 20.1237 11.1975L22.8618 15.9415C23.1156 16.3807 23.5756 16.6263 24.049 16.6263C24.281 16.6263 24.5165 16.5671 24.732 16.4427C25.3867 16.0646 25.6112 15.2274 25.2332 14.5725Z" fill="#F6C93C"/>
<path d="M49.3753 9.32759C48.72 8.94942 47.8831 9.17391 47.5051 9.82893L44.7669 14.5728C44.3889 15.2275 44.6134 16.0648 45.2682 16.4428C45.4839 16.5672 45.7191 16.6264 45.9513 16.6264C46.4246 16.6264 46.8847 16.3807 47.1384 15.9416L49.8766 11.1978C50.2546 10.5429 50.0301 9.70547 49.3753 9.32759Z" fill="#F6C93C"/>
<path d="M63.7504 37.7772C63.7502 37.7604 63.7493 37.7437 63.7484 37.7268C63.7476 37.7093 63.7465 37.6918 63.7452 37.6741C63.7442 37.6629 63.7441 37.6516 63.7428 37.6405C63.7412 37.6252 63.7385 37.6099 63.7364 37.5947C63.7339 37.5776 63.7311 37.5605 63.7281 37.5433C63.7257 37.5304 63.7242 37.5174 63.7215 37.5047C63.7188 37.492 63.7151 37.4794 63.7121 37.4667C63.7078 37.4492 63.7032 37.4317 63.6983 37.4142C63.6943 37.4001 63.6909 37.3858 63.6865 37.3718C63.6834 37.362 63.6793 37.3523 63.6758 37.3425C63.6694 37.3239 63.6626 37.3054 63.6555 37.2869C63.6497 37.2723 63.6444 37.2575 63.6382 37.2432C63.635 37.2357 63.631 37.2283 63.6276 37.2208C63.6188 37.2015 63.6095 37.1826 63.6 37.1636C63.5926 37.1491 63.5855 37.1346 63.5775 37.1206C63.5762 37.1181 63.5752 37.1156 63.5738 37.1132L55.3701 22.6008C55.366 22.5936 55.3608 22.5874 55.3566 22.5803C55.3337 22.5414 55.3088 22.5035 55.282 22.467C55.2751 22.4574 55.2684 22.4477 55.2613 22.4383C55.2272 22.3941 55.1907 22.3513 55.1512 22.3114C55.1507 22.3109 55.15 22.3103 55.1493 22.3096C55.1118 22.2719 55.0712 22.2368 55.0291 22.2033C55.0186 22.1949 55.0079 22.1871 54.9973 22.1792C54.9634 22.1539 54.9278 22.1301 54.891 22.1076C54.8791 22.1003 54.8675 22.0927 54.8553 22.0858C54.8087 22.0593 54.7606 22.0346 54.71 22.0132C54.7095 22.013 54.7089 22.0127 54.7082 22.0124C54.7081 22.0123 54.7078 22.0123 54.7077 22.0121C54.6568 21.9908 54.6051 21.9739 54.5533 21.9589C54.5388 21.9548 54.5242 21.9517 54.5096 21.948C54.4688 21.9378 54.428 21.9296 54.3869 21.9231C54.3723 21.9209 54.358 21.9185 54.3432 21.9167C54.2884 21.91 54.2336 21.9058 54.179 21.9058C54.1789 21.9058 54.1787 21.9058 54.1785 21.9058H54.1782C54.1759 21.9058 54.1737 21.9058 54.1713 21.9058H35.0001H34.9965H15.8352C15.7785 21.9056 15.7217 21.91 15.6647 21.917C15.6515 21.9186 15.6385 21.9209 15.6254 21.923C15.5839 21.9294 15.5425 21.9378 15.5012 21.9481C15.4859 21.952 15.4707 21.9555 15.4557 21.9599C15.411 21.9728 15.3665 21.9881 15.3225 22.0057C15.3151 22.0087 15.3076 22.0108 15.3002 22.0139C15.299 22.0145 15.2976 22.0147 15.2964 22.0153C15.2469 22.0363 15.1999 22.0607 15.1544 22.0868C15.1429 22.0933 15.1321 22.1007 15.1209 22.1076C15.084 22.13 15.0484 22.1539 15.0144 22.1795C15.0032 22.1878 14.9921 22.1963 14.981 22.205C14.943 22.2353 14.9066 22.2672 14.8724 22.301C14.8679 22.3054 14.8632 22.3094 14.8588 22.3139C14.8195 22.3537 14.783 22.3959 14.7493 22.4399C14.7428 22.4483 14.7371 22.4571 14.7308 22.4656C14.7039 22.5024 14.6787 22.5405 14.6558 22.5798C14.6517 22.5869 14.6465 22.593 14.6424 22.6002L6.44406 37.0824C6.44379 37.0828 6.44365 37.0831 6.44338 37.0835L6.42711 37.1121C6.42574 37.1145 6.42478 37.1171 6.42328 37.1196C6.4148 37.1348 6.40715 37.1504 6.39922 37.1659C6.38937 37.1852 6.3798 37.2045 6.37092 37.2243C6.36818 37.2303 6.36518 37.2364 6.36244 37.2424C6.35574 37.2578 6.35 37.2737 6.34385 37.2895C6.33646 37.3084 6.32936 37.3273 6.32279 37.3466C6.31992 37.3548 6.31664 37.363 6.31404 37.3712C6.30926 37.3862 6.3057 37.4016 6.30133 37.417C6.29627 37.435 6.29121 37.4531 6.28697 37.4715C6.28438 37.4825 6.28123 37.4933 6.27891 37.5042C6.27604 37.518 6.27426 37.5322 6.2718 37.5462C6.26865 37.5639 6.26551 37.5817 6.26305 37.5999C6.26127 37.6133 6.25895 37.6267 6.25758 37.6401C6.25621 37.6524 6.25607 37.6648 6.25498 37.6771C6.25348 37.6953 6.25211 37.7134 6.25143 37.7317C6.25088 37.7467 6.25006 37.7618 6.24992 37.7768C6.24992 37.78 6.24951 37.7831 6.24951 37.7862C6.24951 37.7947 6.25061 37.8031 6.25074 37.8115C6.25102 37.8296 6.2517 37.8476 6.25266 37.8658C6.25348 37.8807 6.2543 37.8956 6.25566 37.9105C6.25676 37.9232 6.25826 37.9357 6.25977 37.9482C6.26182 37.9655 6.26428 37.9826 6.26701 37.9998C6.2692 38.0133 6.27125 38.0269 6.27385 38.0403C6.27645 38.0542 6.27918 38.068 6.28232 38.0818C6.28602 38.0984 6.29025 38.1146 6.29449 38.131C6.29764 38.1432 6.30092 38.1554 6.30434 38.1675C6.30857 38.1822 6.31281 38.1967 6.31746 38.2112C6.32252 38.2267 6.32826 38.2421 6.33387 38.2574C6.33824 38.2693 6.34275 38.2812 6.3474 38.2931C6.35314 38.3073 6.35875 38.3215 6.3649 38.3356C6.37105 38.3498 6.37789 38.3637 6.38459 38.3777C6.39074 38.3904 6.39703 38.403 6.40346 38.4156C6.41043 38.4288 6.41726 38.4421 6.42465 38.4552C6.43162 38.4676 6.43887 38.4798 6.44625 38.4921C6.45445 38.5058 6.46307 38.5193 6.47182 38.5327C6.47988 38.5452 6.48822 38.5573 6.4967 38.5695C6.50422 38.5802 6.5116 38.5908 6.51953 38.6015C6.52965 38.6152 6.54004 38.6284 6.5507 38.6418C6.56041 38.6539 6.57053 38.6655 6.58051 38.6772C6.58625 38.6839 6.59103 38.691 6.59705 38.6977L34.15 69.5429C34.1837 69.5808 34.2198 69.6165 34.2573 69.65C34.2627 69.6548 34.2686 69.6589 34.2741 69.6637C34.3136 69.698 34.355 69.7296 34.3978 69.759C34.4118 69.7685 34.426 69.7775 34.4402 69.7866C34.4801 69.8117 34.5211 69.8347 34.5633 69.8558C34.5749 69.8615 34.586 69.8679 34.5977 69.8734C34.6509 69.8979 34.7054 69.9188 34.7615 69.9364C34.7749 69.9407 34.7886 69.9437 34.8021 69.9474C34.8471 69.9599 34.8927 69.9702 34.939 69.9783C34.9559 69.9811 34.9727 69.9841 34.9898 69.9865C35.0496 69.9944 35.1096 69.9999 35.1707 69.9999H35.1749C35.2362 69.9997 35.2965 69.994 35.3564 69.9858C35.3734 69.9834 35.3901 69.9804 35.4072 69.9774C35.4536 69.9692 35.4995 69.9588 35.5446 69.946C35.5581 69.9422 35.5718 69.9392 35.5852 69.9348C35.6413 69.917 35.696 69.8957 35.7493 69.8708C35.7609 69.8653 35.772 69.8589 35.7835 69.8532C35.8257 69.832 35.8669 69.8086 35.9068 69.783C35.9211 69.7739 35.9352 69.7647 35.9493 69.755C35.9917 69.7256 36.0327 69.694 36.0718 69.6598C36.0777 69.6546 36.0841 69.6501 36.09 69.6449C36.1274 69.6109 36.1635 69.5749 36.1974 69.5365L63.4084 38.6925C63.4133 38.6869 63.4173 38.6809 63.4221 38.6753C63.4311 38.6648 63.4401 38.6541 63.4489 38.6433C63.4606 38.6287 63.4719 38.6139 63.4829 38.5989C63.4906 38.5885 63.4981 38.5781 63.5055 38.5676C63.5131 38.5566 63.5205 38.5454 63.5279 38.5342C63.5375 38.5196 63.5465 38.5048 63.5555 38.4899C63.5629 38.4776 63.5703 38.4656 63.5773 38.4531C63.5838 38.4413 63.59 38.4292 63.5963 38.4171C63.6032 38.4035 63.6099 38.3897 63.6165 38.3759C63.6233 38.3617 63.6303 38.3476 63.6366 38.3332C63.6422 38.3204 63.6471 38.3074 63.6523 38.2944C63.6574 38.2817 63.6622 38.2689 63.6668 38.2559C63.6726 38.2401 63.6786 38.2244 63.6838 38.2086C63.688 38.1954 63.6916 38.1822 63.6955 38.1689C63.6994 38.1558 63.7026 38.1425 63.7061 38.1293C63.7103 38.1126 63.7149 38.096 63.7185 38.0791C63.7212 38.0666 63.7236 38.0541 63.7259 38.0414C63.7286 38.0267 63.7308 38.012 63.7331 37.9972C63.7357 37.98 63.7385 37.9629 63.7405 37.9455C63.7419 37.9343 63.7431 37.923 63.7441 37.9116C63.7456 37.8952 63.7463 37.8788 63.7472 37.8621C63.7482 37.8445 63.749 37.8268 63.7493 37.8093C63.7494 37.802 63.7504 37.7947 63.7504 37.7873C63.7508 37.7834 63.7504 37.7804 63.7504 37.7772ZM52.12 24.6434L47.6811 35.236L38.0873 24.6434H52.12ZM31.9346 24.6434L22.4276 35.2508L17.9051 24.6434H31.9346ZM15.6599 26.3592L19.9484 36.4174H9.96674L15.6599 26.3592ZM10.6774 39.1556H21.1155L30.6477 61.5113L10.6774 39.1556ZM35.1603 65.1142L24.0922 39.1556H29.5238C30.2799 39.1556 30.8929 38.5427 30.8929 37.7865C30.8929 37.0303 30.2799 36.4174 29.5238 36.4174H25.0592L35.0055 25.3195L45.0569 36.4174H40.4766C39.7205 36.4174 39.1075 37.0303 39.1075 37.7865C39.1075 38.5427 39.7205 39.1556 40.4766 39.1556H46.0387L35.1603 65.1142ZM39.6508 61.4834L49.0075 39.1556H59.3483L39.6508 61.4834ZM50.1547 36.4174L54.3611 26.3799L60.0352 36.4174H50.1547Z" fill="#F7F7F7"/>
</svg>
