<svg width="70" height="70" viewBox="0 0 70 70" fill="none" xmlns="http://www.w3.org/2000/svg">
<g clip-path="url(#clip0_10_184)">
<path d="M36.4958 15.5736V7.201C36.4958 6.42914 35.8548 5.80347 35.0644 5.80347C34.2739 5.80347 33.6329 6.42914 33.6329 7.201V15.5736C34.8892 15.0376 35.4592 15.2788 36.4958 15.5736Z" fill="#F6C93C"/>
<path d="M55.9415 55.4906L63.1078 59.82C63.7684 60.2191 64.6354 59.994 65.0442 59.3174C65.4529 58.6409 65.2489 57.7687 64.5882 57.3695L57.4219 53.0401C57.231 54.3925 56.7298 54.7557 55.9415 55.4906Z" fill="#F6C93C"/>
<path d="M13.3805 55.9921L6.21416 60.3216C5.55349 60.7207 4.6865 60.4956 4.27776 59.819C3.869 59.1424 4.07308 58.2702 4.73371 57.8711L11.9001 53.5416C12.0909 54.8941 12.5921 55.2572 13.3805 55.9921Z" fill="#F6C93C"/>
<path d="M68.6328 59.8827C67.8781 59.8827 67.2656 60.4952 67.2656 61.2499C67.2656 62.0046 67.8781 62.6171 68.6328 62.6171C69.3875 62.6171 70 62.0046 70 61.2499C69.9999 60.4952 69.3875 59.8827 68.6328 59.8827Z" fill="#F6C93C"/>
<path d="M35.0001 0C34.2454 0 33.6329 0.612499 33.6329 1.36718C33.6329 2.12187 34.2454 2.73437 35.0001 2.73437C35.7548 2.73437 36.3673 2.12187 36.3673 1.36718C36.3673 0.612499 35.7548 0 35.0001 0Z" fill="#F6C93C"/>
<path d="M1.36732 59.8827C0.612635 59.8827 0.000136375 60.4952 0.000136375 61.2499C0.000136375 62.0046 0.612635 62.6171 1.36732 62.6171C2.12201 62.6171 2.73451 62.0046 2.73451 61.2499C2.73451 60.4952 2.12201 59.8827 1.36732 59.8827Z" fill="#F6C93C"/>
<path d="M58.2422 53.8604V27.1591C58.2422 26.6478 57.9569 26.1791 57.5026 25.9444L36.3673 15.0267C35.2985 14.6073 35.0687 14.214 33.6329 15.0267L12.4977 25.9444C12.0433 26.1791 11.7579 26.6478 11.7579 27.1591V53.8604C11.7696 55.4095 11.8468 55.2806 13.13 56.2267L34.2619 69.7836C34.4868 69.9278 34.7435 70 35.0001 70C35.2576 70 35.5151 69.9274 35.7405 69.7821L56.87 56.2267C58.2319 55.3593 58.2305 55.357 58.2422 53.8604ZM33.6329 66.1313L15.7163 54.6371L28.6805 46.6689C29.3237 46.2735 29.5248 45.4314 29.1294 44.7882C28.734 44.1448 27.8918 43.9441 27.2487 44.3393L14.4923 52.1797V29.777L33.6329 41.2435V66.1313ZM35.0001 38.875L15.7492 27.3425L33.6329 18.1044V32.2656C33.6329 33.0207 34.2451 33.6328 35.0001 33.6328C35.755 33.6328 36.3673 33.0207 36.3673 32.2656V18.1044L54.251 27.3425L35.0001 38.875ZM55.5078 52.1797L42.7515 44.3392C42.1085 43.9438 41.2664 44.1449 40.8708 44.788C40.4754 45.4313 40.6763 46.2733 41.3196 46.6687L54.2838 54.637L36.3673 66.1312V41.2433L55.5078 29.7769V52.1797Z" fill="#F7F7F7"/>
</g>
<defs>
<clipPath id="clip0_10_184">
<rect width="70" height="70" fill="white"/>
</clipPath>
</defs>
</svg>
