<svg width="70" height="70" viewBox="0 0 70 70" fill="none" xmlns="http://www.w3.org/2000/svg">
<g clip-path="url(#clip0_10_193)">
<path d="M68.6328 23.2423C67.8781 23.2423 67.2656 23.8548 67.2656 24.6095C67.2656 25.3642 67.8781 25.9767 68.6328 25.9767C69.3875 25.9767 70 25.3642 70 24.6095C70 23.8548 69.3875 23.2423 68.6328 23.2423Z" fill="#F6C93C"/>
<path d="M62.7922 7.20784C62.2576 6.67464 61.3922 6.67464 60.859 7.20784C60.3244 7.74241 60.3244 8.60785 60.859 9.14105C61.3922 9.67562 62.2576 9.67562 62.7922 9.14105C63.3254 8.60785 63.3254 7.74241 62.7922 7.20784Z" fill="#F6C93C"/>
<path d="M62.7922 40.0779C62.2576 39.5433 61.3922 39.5433 60.859 40.0779C60.3244 40.6111 60.3244 41.4765 60.859 42.0111C61.3922 42.5443 62.2576 42.5443 62.7922 42.0111C63.3254 41.4765 63.3254 40.6111 62.7922 40.0779Z" fill="#F6C93C"/>
<path d="M45.3905 0C44.6358 0 44.0233 0.612502 44.0233 1.36719C44.0233 2.12188 44.6358 2.73439 45.3905 2.73439C46.1452 2.73439 46.7577 2.12188 46.7577 1.36719C46.7577 0.612502 46.1452 0 45.3905 0Z" fill="#F6C93C"/>
<path d="M45.3905 46.4846C44.6358 46.4846 44.0233 47.0971 44.0233 47.8518C44.0233 48.6064 44.6358 49.2189 45.3905 49.2189C46.1452 49.2189 46.7577 48.6064 46.7577 47.8518C46.7577 47.0971 46.1452 46.4846 45.3905 46.4846Z" fill="#F6C93C"/>
<path d="M29.9221 7.20784C29.3889 6.67464 28.5235 6.67464 27.9889 7.20784C27.4557 7.74241 27.4557 8.60785 27.9889 9.14105C28.5235 9.67562 29.3889 9.67562 29.9221 9.14105C30.4567 8.60785 30.4567 7.74241 29.9221 7.20784Z" fill="#F6C93C"/>
<path d="M22.1483 23.2423C21.3936 23.2423 20.7811 23.8548 20.7811 24.6095C20.7811 25.3642 21.3936 25.9767 22.1483 25.9767C22.903 25.9767 23.5155 25.3642 23.5155 24.6095C23.5155 23.8548 22.903 23.2423 22.1483 23.2423Z" fill="#F6C93C"/>
<path d="M51.5376 20.2302L49.6044 18.297C48.8297 17.5224 47.7997 17.0957 46.7037 17.0957C45.6076 17.0957 44.5776 17.5224 43.8012 18.2988L30.8425 31.3083C30.7561 31.3625 30.6739 31.4259 30.5989 31.5012C30.5234 31.577 30.4597 31.6598 30.4057 31.7469L1.20149 61.0655C0.426701 61.84 0 62.8701 0 63.9655C0 65.0609 0.426701 66.0908 1.20135 66.8654L3.13456 68.7985C3.90921 69.5733 4.93898 70 6.03452 70C7.13005 70 8.15995 69.5733 8.93652 68.7967L38.3625 39.2585L51.5376 26.0315C52.3122 25.2568 52.7389 24.2267 52.7389 23.1309C52.7389 22.0351 52.3122 21.0049 51.5376 20.2302ZM7.00098 66.865C6.74272 67.1233 6.39956 67.2656 6.03452 67.2656C5.66948 67.2656 5.32631 67.1233 5.06818 66.865L3.13497 64.9318C2.87671 64.6737 2.73439 64.3305 2.73439 63.9655C2.73439 63.6004 2.87671 63.2573 3.13675 62.9971L31.5945 34.4278L35.462 38.2953L7.00098 66.865ZM49.6022 24.0999L37.392 36.3583L33.5244 32.4908L45.7367 20.2306C45.995 19.9725 46.3383 19.8303 46.7039 19.8303C47.0693 19.8303 47.4127 19.9725 47.6709 20.2306L49.6041 22.164C49.8623 22.4222 50.0047 22.7657 50.0047 23.1311C50.0047 23.4966 49.8622 23.8397 49.6022 24.0999Z" fill="#F7F7F7"/>
<path d="M45.3905 5.46877C44.6356 5.46877 44.0233 6.08086 44.0233 6.83596V12.3047C44.0233 13.0598 44.6356 13.6719 45.3905 13.6719C46.1455 13.6719 46.7577 13.0598 46.7577 12.3047V6.83596C46.7577 6.08086 46.1455 5.46877 45.3905 5.46877Z" fill="#F6C93C"/>
<path d="M45.3905 35.547C44.6356 35.547 44.0233 36.1591 44.0233 36.9142V42.383C44.0233 43.1381 44.6356 43.7502 45.3905 43.7502C46.1455 43.7502 46.7577 43.1381 46.7577 42.383V36.9142C46.7577 36.1591 46.1456 35.547 45.3905 35.547Z" fill="#F6C93C"/>
<path d="M37.6565 14.9419L33.79 11.0755C33.256 10.5416 32.3906 10.5416 31.8564 11.0755C31.3225 11.6094 31.3225 12.4751 31.8564 13.009L35.723 16.8754C35.99 17.1424 36.3398 17.2759 36.6897 17.2759C37.0396 17.2759 37.3894 17.1423 37.6565 16.8754C38.1903 16.3415 38.1903 15.4758 37.6565 14.9419Z" fill="#F6C93C"/>
<path d="M58.9244 36.21L55.0581 32.3435C54.5241 31.8097 53.6586 31.8097 53.1245 32.3435C52.5906 32.8774 52.5906 33.7431 53.1245 34.277L56.9909 38.1435C57.2579 38.4105 57.6078 38.5439 57.9576 38.5439C58.3075 38.5439 58.6574 38.4103 58.9244 38.1435C59.4583 37.6096 59.4583 36.7439 58.9244 36.21Z" fill="#F6C93C"/>
<path d="M58.9245 11.0755C58.3906 10.5416 57.5252 10.5416 56.9909 11.0755L53.1245 14.9419C52.5906 15.4758 52.5906 16.3415 53.1245 16.8754C53.3916 17.1424 53.7414 17.2759 54.0914 17.2759C54.4412 17.2759 54.7911 17.1423 55.0581 16.8754L58.9245 13.009C59.4584 12.4751 59.4584 11.6094 58.9245 11.0755Z" fill="#F6C93C"/>
<path d="M33.0858 23.2423H27.617C26.862 23.2423 26.2498 23.8544 26.2498 24.6095C26.2498 25.3646 26.862 25.9767 27.617 25.9767H33.0858C33.8407 25.9767 34.453 25.3646 34.453 24.6095C34.453 23.8544 33.8407 23.2423 33.0858 23.2423Z" fill="#F6C93C"/>
<path d="M63.164 23.2423H57.6953C56.9403 23.2423 56.3281 23.8544 56.3281 24.6095C56.3281 25.3646 56.9403 25.9767 57.6953 25.9767H63.164C63.919 25.9767 64.5312 25.3646 64.5312 24.6095C64.5312 23.8544 63.9191 23.2423 63.164 23.2423Z" fill="#F6C93C"/>
</g>
<defs>
<clipPath id="clip0_10_193">
<rect width="70" height="70" fill="white"/>
</clipPath>
</defs>
</svg>
