<svg width="67" height="60" viewBox="0 0 67 60" fill="none" xmlns="http://www.w3.org/2000/svg">
<g clip-path="url(#clip0_50_344)">
<path d="M55.0873 19.4275C54.3743 19.1815 53.6552 18.9536 52.9308 18.7441C53.0525 18.2441 53.1645 17.7501 53.264 17.2649C54.8966 9.29619 53.8293 2.87645 50.1838 0.762769C46.6885 -1.26355 40.9723 0.849348 35.1993 5.90119C34.6304 6.39996 34.0741 6.91311 33.5309 7.44014C33.1673 7.08968 32.7972 6.74603 32.4209 6.40935C26.3705 1.00777 20.306 -1.26881 16.6644 0.850927C13.1723 2.88356 12.1383 8.91856 13.6081 16.4707C13.7543 17.2186 13.9194 17.9627 14.1032 18.7022C13.2448 18.9475 12.4165 19.2086 11.6237 19.4865C4.53009 21.9733 0 25.8704 0 29.9128C0 34.0878 4.86326 38.2754 12.2516 40.8146C12.8506 41.0196 13.4545 41.2096 14.0629 41.3843C13.8653 42.1808 13.6899 42.9827 13.5369 43.7891C12.1356 51.2101 13.2299 57.1025 16.7126 59.1222C20.3096 61.208 26.347 59.0644 32.2254 53.8972C32.7021 53.4772 33.1683 53.0452 33.6235 52.6017C34.2118 53.1724 34.8157 53.7265 35.4346 54.2633C41.1291 59.1901 46.7529 61.1796 50.2322 59.1544C53.8259 57.0625 54.9939 50.7325 53.4775 43.0312C53.3581 42.4279 53.2241 41.8275 53.0758 41.2307C53.4998 41.1044 53.9159 40.9743 54.3216 40.8391C62.0025 38.2804 67 34.1436 67 29.9128C67 25.8557 62.3236 21.9322 55.0873 19.4275ZM53.4215 38.1075C53.0551 38.2294 52.6793 38.347 52.2961 38.4615C51.4481 35.7622 50.3039 32.8922 48.9035 29.9267C50.2398 27.032 51.3401 24.1986 52.1642 21.517C52.8497 21.7165 53.5147 21.9267 54.1559 22.1486C60.356 24.2949 64.1378 27.4678 64.1378 29.9128C64.1378 32.517 60.0535 35.8978 53.4215 38.1075ZM50.6698 43.5901C51.3403 46.9954 51.4358 50.0744 50.9917 52.4815C50.5928 54.6444 49.7904 56.0862 48.798 56.6638C46.6867 57.8928 42.1713 56.2954 37.3015 52.0817C36.7258 51.5826 36.164 51.0675 35.6168 50.537C37.5048 48.4609 39.3916 46.0475 41.233 43.367C44.472 43.078 47.5321 42.6054 50.3071 41.9604C50.4407 42.5007 50.5617 43.0441 50.6698 43.5901ZM22.8418 56.4515C20.7789 57.1838 19.1358 57.2049 18.1426 56.6291C16.0292 55.4036 15.1506 50.6722 16.349 44.3259C16.4915 43.576 16.6546 42.8302 16.8382 42.0893C19.5826 42.6999 22.6204 43.1388 25.867 43.4036C27.721 46.0265 29.6622 48.4372 31.6185 50.5483C31.2027 50.9528 30.7772 51.347 30.3421 51.7304C27.7424 54.0151 25.1376 55.6362 22.8418 56.4515ZM13.1775 38.0915C9.9105 36.9686 7.21245 35.5093 5.36314 33.917C3.70123 32.4862 2.86242 31.0654 2.86242 29.9128C2.86242 27.4596 6.49952 24.3307 12.5659 22.2041C13.3021 21.9462 14.0726 21.7028 14.8722 21.4743C15.7107 24.2165 16.8105 27.0836 18.1376 29.9828C16.7932 32.9249 15.6777 35.8378 14.8311 38.6122C14.2757 38.4523 13.7244 38.2786 13.1775 38.0915ZM16.4171 15.9178C15.158 9.44751 15.9942 4.56672 18.0986 3.34172C20.34 2.03698 25.2964 3.89724 30.5206 8.56145C30.8613 8.86629 31.1964 9.17731 31.5259 9.49435C29.5792 11.5962 27.6558 13.9891 25.8183 16.5965C22.6672 16.8901 19.6509 17.3617 16.8777 17.9936C16.7069 17.3057 16.5533 16.6137 16.4171 15.918V15.9178ZM45.3179 23.0936C44.6629 21.9559 43.9836 20.8326 43.2804 19.7243C45.4181 19.9962 47.4664 20.357 49.3897 20.798C48.8124 22.6591 48.0927 24.6046 47.2455 26.5993C46.6262 25.418 45.9836 24.2491 45.3179 23.0936ZM33.5322 11.5512C34.8523 12.9893 36.1745 14.5949 37.475 16.337C34.8369 16.2117 32.1943 16.2112 29.5562 16.3354C30.8579 14.6093 32.1914 13.0059 33.5322 11.5512ZM21.6708 23.1133C21.0135 24.2596 20.3828 25.4211 19.7794 26.597C18.9461 24.6093 18.2329 22.6549 17.6506 20.7675C19.5622 20.3375 21.6007 19.9859 23.7248 19.7191C23.0138 20.8341 22.329 21.9657 21.6708 23.113V23.1133ZM23.7858 40.3112C21.5913 40.0649 19.5221 39.7315 17.6111 39.313C18.2025 37.392 18.9314 35.3959 19.7828 33.3657C20.3886 34.5424 21.0219 35.7047 21.6821 36.8515C22.361 38.0304 23.064 39.1851 23.7858 40.3112ZM33.6112 48.477C32.2545 47.0054 30.9014 45.3772 29.58 43.6262C30.8629 43.6767 32.1707 43.7025 33.5 43.7025C34.8657 43.7025 36.2156 43.6717 37.5443 43.6122C36.2397 45.3949 34.9224 47.0254 33.6112 48.477ZM47.2724 33.262C48.168 35.3146 48.9228 37.3001 49.5222 39.1883C47.5797 39.6341 45.4823 39.993 43.2723 40.2596C43.9805 39.1308 44.6662 37.988 45.3292 36.8317C46.0032 35.6565 46.6511 34.4662 47.2724 33.262ZM42.8499 35.3938C41.835 37.1666 40.7631 38.9056 39.6357 40.6083C37.5937 40.7537 35.5472 40.826 33.5 40.8249C31.4149 40.8249 29.3868 40.7596 27.4339 40.6322C26.2771 38.9335 25.1847 37.1914 24.159 35.4096H24.1593C23.1383 33.6373 22.1847 31.8266 21.3005 29.9815C22.1825 28.1359 23.1332 26.3244 24.1506 24.5507L24.1504 24.5509C25.1674 22.7768 26.2511 21.0421 27.3991 19.3507C29.3915 19.1991 31.4348 19.1201 33.4997 19.1201H33.5C35.5744 19.1201 37.6202 19.1999 39.6122 19.3525C40.7486 21.0414 41.8253 22.7701 42.8405 24.5354C43.8613 26.3052 44.8246 28.1079 45.7288 29.9407C44.8339 31.7922 43.8736 33.611 42.8499 35.3938ZM48.7543 3.25593C50.9977 4.55698 51.8703 9.80356 50.4607 16.6838C50.3707 17.1228 50.2696 17.5699 50.1597 18.0233C47.3797 17.378 44.3613 16.8983 41.2011 16.6001C39.3601 13.9641 37.4525 11.5675 35.5375 9.49277C36.0394 9.00632 36.5532 8.53249 37.0785 8.07172C42.025 3.74356 46.648 2.03461 48.7543 3.25593ZM33.5 23.897C36.8042 23.897 39.4829 26.5904 39.4829 29.9128C39.4829 33.2351 36.8042 35.9286 33.5 35.9286C30.1958 35.9286 27.5171 33.2351 27.5171 29.9128C27.5171 26.5904 30.1958 23.897 33.5 23.897Z" fill="#00D8FF"/>
</g>
<defs>
<clipPath id="clip0_50_344">
<rect width="67" height="60" fill="white"/>
</clipPath>
</defs>
</svg>
