<svg width="472" height="472" viewBox="0 0 472 472" fill="none" xmlns="http://www.w3.org/2000/svg">
<path d="M87.4118 393.596L93.692 387.315C145.743 380.314 198.201 402.655 229.641 444.506V452.517C229.641 454.207 230.312 455.828 231.507 457.023C232.702 458.218 234.323 458.889 236.013 458.889C237.703 458.889 239.324 458.218 240.519 457.023C241.714 455.828 242.385 454.207 242.385 452.517V444.165C257.911 423.457 278.671 407.257 302.532 397.231C326.393 387.205 352.494 383.715 378.151 387.119L384.431 393.399C385.204 394.172 386.135 394.618 387.119 394.907L387.499 394.985C389.57 395.47 391.826 395.012 393.438 393.399C395.051 391.786 395.51 389.531 395.025 387.46L394.946 387.079C394.681 386.069 394.162 385.144 393.438 384.392L387.158 378.111C383.754 352.454 387.244 326.354 397.27 302.493C407.296 278.632 423.496 257.871 444.204 242.346H452.543C454.233 242.346 455.854 241.674 457.049 240.479C458.244 239.284 458.915 237.664 458.915 235.974C458.915 234.284 458.244 232.663 457.049 231.468C455.854 230.273 454.233 229.602 452.543 229.602H444.545C402.682 198.148 380.353 145.704 387.355 93.6526L393.635 87.3724C394.228 86.7817 394.698 86.0797 395.019 85.3069C395.339 84.5341 395.505 83.7055 395.505 82.8687C395.505 82.0319 395.339 81.2034 395.019 80.4305C394.698 79.6577 394.228 78.9558 393.635 78.3651C392.794 77.5653 391.744 77.0199 390.606 76.7917C389.559 76.5161 388.458 76.5161 387.41 76.7918C386.362 77.0675 385.404 77.6095 384.628 78.3651L378.347 84.6453C326.296 91.6466 273.839 69.3053 242.398 27.4546V19.4568C242.398 17.7669 241.727 16.1461 240.532 14.9512C239.337 13.7562 237.716 13.0848 236.026 13.0848C234.336 13.0848 232.716 13.7562 231.521 14.9512C230.326 16.1461 229.654 17.7669 229.654 19.4568V27.8086C214.128 48.5189 193.365 64.72 169.502 74.7461C145.638 84.7722 119.535 88.2615 93.8756 84.8551L87.5953 78.5748C86.8426 77.8513 85.9174 77.3323 84.9076 77.0671L84.5273 76.9884C83.4843 76.7229 82.3906 76.7293 81.3508 77.0071C80.3109 77.2848 79.3597 77.8246 78.588 78.5748C77.8367 79.3458 77.2962 80.2971 77.0184 81.3371C76.7406 82.3772 76.7348 83.4712 77.0016 84.5142L77.0802 84.8944C77.3454 85.9042 77.8645 86.8295 78.588 87.5822L84.8682 93.8624C88.2722 119.519 84.7817 145.62 74.7557 169.481C64.7297 193.342 48.5299 214.102 27.8218 229.628H19.4831C17.7949 229.628 16.1758 230.299 14.9821 231.492C13.7883 232.686 13.1177 234.305 13.1177 235.993C13.1177 237.682 13.7883 239.301 14.9821 240.494C16.1758 241.688 17.7949 242.359 19.4831 242.359H27.494C69.3578 273.812 91.686 326.257 84.6847 378.308L78.4044 384.588C77.6455 385.362 77.1013 386.321 76.8255 387.369C76.5496 388.417 76.5515 389.52 76.8311 390.567C77.0933 391.668 77.5522 392.73 78.4044 393.596C80.8955 396.087 84.9207 396.087 87.4118 393.596ZM98.6873 107.682L127.61 136.605C128.989 154.702 126.022 172.868 118.957 189.587C112.47 204.787 102.82 218.433 90.6502 229.615H47.3704C48.9569 228.173 50.9236 226.508 52.4051 225.026C67.7223 209.663 79.7309 191.325 87.6908 171.144C95.6506 150.962 99.393 129.364 98.6873 107.682ZM257.306 214.812C258.027 222.535 260.701 229.89 265.133 236.262C263.028 239.252 261.297 242.488 259.98 245.899C258.658 249.629 257.833 253.517 257.528 257.463C253.648 257.83 249.793 258.512 246.043 259.902C242.667 261.209 239.462 262.921 236.498 265.002C233.371 262.737 229.965 260.886 226.363 259.495C222.647 258.173 218.772 257.348 214.839 257.043C214.143 249.44 211.511 242.141 207.195 235.843C209.24 232.853 211.063 229.694 212.348 226.206C213.737 222.456 214.432 218.602 214.786 214.721C218.693 214.367 222.574 213.672 226.35 212.269C229.825 210.984 232.984 209.175 235.974 207.129C242.31 211.472 249.655 214.118 257.306 214.812ZM196.037 242.359C196.785 243.382 197.598 244.365 198.214 245.479C200.325 249.229 201.623 253.359 202.095 257.646C202.213 258.722 202.095 259.823 202.095 260.911L181.851 281.155C180.655 275.225 179.021 269.392 176.961 263.704C174.169 256.263 170.646 249.118 166.446 242.372H196.037V242.359ZM211.299 269.709C212.256 269.722 213.213 269.591 214.183 269.709C216.792 269.997 219.388 270.482 221.919 271.426C223.689 272.082 225.341 272.934 226.927 273.865C227.897 274.429 228.736 275.176 229.641 275.832V305.554C222.894 301.356 215.749 297.834 208.309 295.039C202.621 292.979 196.788 291.345 190.858 290.149L211.299 269.709ZM242.372 306.026V276.553C243.552 275.661 244.706 274.743 245.991 274.035C249.727 271.938 253.857 270.64 258.132 270.154C259.128 270.036 260.151 270.168 261.16 270.154L281.338 290.332C275.408 291.528 269.575 293.163 263.887 295.223C256.388 298.132 249.184 301.75 242.372 306.026ZM270.207 261.186C270.22 260.138 270.089 259.102 270.207 258.053C270.495 255.444 270.994 252.848 271.924 250.317C272.514 248.744 273.301 247.289 274.101 245.846C274.796 244.601 275.687 243.486 276.526 242.359H306.04C301.764 249.173 298.142 256.377 295.223 263.874C293.163 269.562 291.528 275.395 290.332 281.325L270.207 261.186ZM276.068 229.628C275.36 228.658 274.586 227.74 273.983 226.704C271.797 222.873 270.423 218.633 269.945 214.249C269.827 213.2 269.945 212.125 269.945 211.063L290.149 190.858C291.381 196.732 292.915 202.58 295.039 208.309C297.845 215.848 301.411 222.941 305.554 229.641H276.068V229.628ZM260.846 202.16C259.849 202.147 258.853 202.265 257.869 202.16C253.546 201.703 249.362 200.369 245.571 198.24C244.444 197.611 243.434 196.785 242.385 196.011V166.446C249.072 170.576 256.178 174.155 263.717 176.961C269.446 179.085 275.294 180.619 281.168 181.851L260.846 202.16ZM229.641 165.947V195.867C228.553 196.667 227.504 197.506 226.324 198.161C224.916 198.983 223.448 199.698 221.932 200.298C219.434 201.189 216.836 201.766 214.196 202.016C213.147 202.134 212.112 202.003 211.063 202.016L190.675 181.628C196.605 180.432 202.438 178.798 208.126 176.738C215.629 173.844 222.834 170.23 229.641 165.947ZM202.095 211.076C202.082 212.085 202.2 213.095 202.095 214.104C201.625 218.384 200.301 222.526 198.201 226.285C197.532 227.465 196.68 228.527 195.867 229.628H165.974C170.038 223.007 174.024 215.534 176.79 208.113C178.914 202.383 180.448 196.536 181.681 190.662L202.095 211.076ZM165.03 268.122C167.953 275.989 169.802 284.052 170.825 292.168L162.696 300.297L140.748 322.245C140.233 306.776 136.896 291.531 130.901 277.261C125.504 264.505 118.059 252.716 108.862 242.359H151.132C156.913 250.275 161.589 258.943 165.03 268.122ZM171.703 309.304L179.832 301.175C188.044 302.172 196.113 304.117 203.878 306.97C213.062 310.4 221.731 315.077 229.641 320.868V363.138C219.286 353.939 207.496 346.495 194.739 341.099C180.469 335.104 165.224 331.767 149.755 331.252L171.703 309.304ZM242.372 363.584V321.38C250.353 315.511 259.079 310.727 268.319 307.154C276.084 304.302 284.153 302.357 292.365 301.359L322.442 331.436C306.972 331.951 291.727 335.288 277.457 341.282C264.661 346.822 252.82 354.349 242.372 363.584ZM309.514 300.494L301.385 292.365C302.382 284.153 304.327 276.084 307.18 268.319C310.589 259.141 315.794 250.121 321.406 242.372H363.61C354.363 252.815 346.835 264.663 341.308 277.47C335.314 291.74 331.977 306.985 331.462 322.455L309.514 300.494ZM320.894 229.628C315.103 221.718 310.427 213.049 306.997 203.865C304.145 196.1 302.2 188.031 301.202 179.819L309.33 171.69L331.278 149.742C331.794 165.211 335.131 180.456 341.125 194.726C346.592 207.706 354.105 219.375 363.165 229.628H320.894ZM300.31 162.683L292.181 170.812C283.969 169.815 275.9 167.87 268.135 165.016C258.951 161.586 250.282 156.91 242.372 151.119V108.835C252.727 118.034 264.517 125.479 277.274 130.875C291.544 136.869 306.789 140.206 322.258 140.722L300.31 162.683ZM229.641 108.39V150.594C221.66 156.463 212.935 161.247 203.694 164.82C195.828 167.744 187.764 169.592 179.648 170.615L171.52 162.486L149.572 140.538C165.041 140.023 180.286 136.686 194.556 130.692C207.358 125.162 219.2 117.634 229.641 108.39ZM170.641 179.622C169.644 187.834 167.699 195.903 164.846 203.668C161.437 212.846 156.232 221.866 150.62 229.615H108.416C117.663 219.171 125.191 207.324 130.718 194.516C136.712 180.246 140.049 165.001 140.564 149.532L170.641 179.622ZM52.5887 246.764C51.0416 245.217 49.324 243.84 47.7244 242.359H91.0436C103.801 254.038 113.74 268.462 120.11 284.542C126.481 300.622 129.117 317.938 127.82 335.186L114.984 348.008L98.8709 364.122C99.5807 342.436 95.8402 320.835 87.8802 300.651C79.9202 280.467 67.9094 262.128 52.5887 246.764ZM225.236 419.411C209.87 404.094 191.53 392.085 171.347 384.125C151.163 376.165 129.563 372.423 107.878 373.129L123.992 357.016L136.801 344.206C154.048 342.913 171.364 345.551 187.443 351.921C203.523 358.292 217.946 368.228 229.628 380.983V424.302C228.16 422.663 226.783 420.945 225.236 419.411ZM246.961 419.595C245.479 421.076 243.814 423.056 242.372 424.63V381.35C253.553 369.178 267.199 359.529 282.4 353.043C299.123 345.991 317.285 343.024 335.382 344.39L364.305 373.313C342.623 372.609 321.026 376.353 300.844 384.312C280.663 392.272 262.326 404.28 246.961 419.595ZM373.326 364.305L357.212 348.192L344.403 335.382C343.024 317.284 345.991 299.119 353.056 282.4C359.543 267.199 369.193 253.554 381.363 242.372H424.643C423.056 243.814 421.09 245.479 419.608 246.961C404.291 262.324 392.282 280.662 384.322 300.843C376.363 321.025 372.62 342.622 373.326 364.305ZM419.424 225.223C420.972 226.77 422.689 228.146 424.289 229.628H380.97C368.212 217.949 358.273 203.525 351.903 187.445C345.532 171.365 342.896 154.049 344.193 136.801L357.002 123.992L373.116 107.878C372.423 129.562 376.174 151.158 384.138 171.338C392.102 191.519 404.11 209.856 419.424 225.223ZM246.777 52.5755C262.143 67.8931 280.483 79.9018 300.666 87.8616C320.85 95.8214 342.45 99.5636 364.135 98.8577L348.021 114.971L335.212 127.781C317.965 129.074 300.649 126.436 284.57 120.066C268.491 113.695 254.067 103.758 242.385 91.0042V47.7113C243.854 49.3108 245.23 51.0415 246.777 52.5755ZM225.052 52.392C226.534 50.9104 228.199 48.9306 229.641 47.3573V90.6371C218.46 102.808 204.815 112.458 189.613 118.944C172.89 125.996 154.728 128.962 136.631 127.597L123.808 114.788L107.695 98.6742C129.379 99.3785 150.979 95.6356 171.162 87.6759C191.346 79.7162 209.686 67.7083 225.052 52.392Z" fill="#F6C93C"/>
</svg>
