<svg width="13" height="13" viewBox="0 0 13 13" fill="none" xmlns="http://www.w3.org/2000/svg">
<path d="M12.8412 12.0756L9.14432 8.37872C9.8604 7.4942 10.2916 6.37024 10.2916 5.1461C10.2916 2.30887 7.98299 0.000305176 5.14577 0.000305176C2.30854 0.000305176 0 2.30885 0 5.14607C0 7.98329 2.30857 10.2919 5.14579 10.2919C6.36994 10.2919 7.49389 9.86071 8.37842 9.14462L12.0753 12.8415C12.1809 12.9471 12.3195 13.0002 12.4582 13.0002C12.5969 13.0002 12.7356 12.9471 12.8412 12.8415C13.053 12.6297 13.053 12.2873 12.8412 12.0756ZM5.14579 9.20853C2.90547 9.20853 1.08333 7.38639 1.08333 5.14607C1.08333 2.90575 2.90547 1.08361 5.14579 1.08361C7.38611 1.08361 9.20825 2.90575 9.20825 5.14607C9.20825 7.38639 7.38609 9.20853 5.14579 9.20853Z" fill="white" fill-opacity="0.5"/>
</svg>
